<svg id="Laag_1" data-name="Laag 1" xmlns="http://www.w3.org/2000/svg" viewBox="0 0 800 148.35"><title>ESOMAR-logo_white</title><path d="M621.16,4.51H599L538.19,144.26h31.26s17.19-41,18.1-43.24h44.88c.92,2.2,18.39,43.24,18.39,43.24H682.6L622.42,4.51ZM610,40.64c2.58,7.08,11.71,32.08,13.16,36.08L596,76.84c1.57-4.08,11.28-29.18,14-36.2" style="fill:#fff"/><path d="M529.4,4.51H491.61s-32.09,83.38-35.34,91.8l-35-91.8H381.19V144.26h26.87V39.18c5.61,15.38,38.39,105.08,38.39,105.08H466s32.8-89.7,38.41-105.08V144.26h26.86V4.51Z" style="fill:#fff"/><path d="M221.42,74.09c0,40.85,32.94,74.08,73.4,74.08s73.41-33.23,73.41-74.08S335.28,0,294.82,0s-73.4,33.23-73.4,74.09m27.34,0c0-25.65,20.65-46.52,46.06-46.52S340.9,48.44,340.9,74.09s-20.69,46.52-46.08,46.52-46.06-20.87-46.06-46.52" style="fill:#fff"/><path d="M118.82,44.68c0,28.63,21.88,35.73,39.46,41.43,14,4.55,25.06,8.15,25.06,19.82,0,10.85-11.27,16.71-21.89,16.71a30.07,30.07,0,0,1-25.29-13.35l-1.28-1.92-21.16,20.52,1.14,1.35c13.29,15.81,32.35,19.11,46,19.11,31.36,0,51.63-17.78,51.63-45.3,0-29-22.41-36.25-40.44-42C157.13,56.21,148,52.75,148,43c0-11.47,10.53-15.55,20.39-15.55,9.49,0,17.8,3.71,22.24,9.93L192,39.21l20.59-21.66-1.41-1.32c-12.71-12-28.93-14.56-40.28-14.56-25.9,0-52,13.29-52,43" style="fill:#fff"/><path d="M118.82,44.68c0,28.63,21.88,35.73,39.46,41.43,14,4.55,25.06,8.15,25.06,19.82,0,10.85-11.27,16.71-21.89,16.71a30.07,30.07,0,0,1-25.29-13.35l-1.28-1.92-21.16,20.52,1.14,1.35c13.29,15.81,32.35,19.11,46,19.11,31.36,0,51.63-17.78,51.63-45.3,0-29-22.41-36.25-40.44-42C157.13,56.21,148,52.75,148,43c0-11.47,10.53-15.55,20.39-15.55,9.49,0,17.8,3.71,22.24,9.93L192,39.21l20.59-21.66-1.41-1.32c-12.71-12-28.93-14.56-40.28-14.56-25.9,0-52,13.29-52,43" style="fill:#fff"/><polygon points="100.36 4.51 0 4.51 0 144.26 105.71 144.26 105.71 118.57 28 118.57 28 85.51 97.11 85.51 97.11 59.79 28 59.79 28 30.21 102.26 30.21 102.26 4.51 100.36 4.51" style="fill:#fff"/><polygon points="100.36 4.51 0 4.51 0 144.26 105.71 144.26 105.71 118.57 28 118.57 28 85.51 97.11 85.51 97.11 59.79 28 59.79 28 30.21 102.26 30.21 102.26 4.51 100.36 4.51" style="fill:#fff"/><path d="M693.73,4.51h-1.9V144.26h28V99.66l16.81-.16L766,144.26h34L765.15,95.71c19.47-6.91,28.41-27.18,28.41-43.8,0-28.38-27.19-47.4-52.59-47.4Zm45.12,24.55c9.55,0,25.55,2.94,25.55,22.66,0,16-8.79,23.4-27.65,23.4H719.84V29.06Z" style="fill:#fff"/></svg>