<svg xmlns="http://www.w3.org/2000/svg" width="53.42mm" height="53.42mm" viewBox="0 0 151.42 151.42"><title>icon-covid</title><path d="M90.1,47.28a7,7,0,1,0,7,7A7,7,0,0,0,90.1,47.28Zm0,9.48a2.53,2.53,0,1,1,2.52-2.52A2.52,2.52,0,0,1,90.1,56.76Z" transform="translate(-14.39 -14.09)" fill="#fff"/><path d="M90.1,118.4a7,7,0,1,0,7,7A7,7,0,0,0,90.1,118.4Zm0,9.48a2.53,2.53,0,1,1,2.52-2.52A2.52,2.52,0,0,1,90.1,127.88Z" transform="translate(-14.39 -14.09)" fill="#fff"/><path d="M152.25,92a7,7,0,1,0,0-4.43h-10.2a52.3,52.3,0,0,0-.56-5.75l4.85-1a2.22,2.22,0,0,0-.87-4.35l-4.84,1A52.46,52.46,0,0,0,139,72l9.42-3.9A7,7,0,0,0,151,69.92a7,7,0,0,0,5.33,0,7,7,0,0,0,0-12.86,6.85,6.85,0,0,0-5.33,0,6.93,6.93,0,0,0-3.76,3.76,6.82,6.82,0,0,0-.51,3.14l-9.42,3.9a52.91,52.91,0,0,0-2.72-5.09l4.1-2.74a2.22,2.22,0,0,0-2.46-3.69l-4.11,2.75a53.86,53.86,0,0,0-3.66-4.46l7.21-7.21a7,7,0,1,0-3.14-3.15l-7.21,7.22a50.74,50.74,0,0,0-4.46-3.66l2.74-4.11a2.21,2.21,0,1,0-3.68-2.46s-3.92,5.82-4,5.89a2.21,2.21,0,0,0,.61,3.08,47.42,47.42,0,1,1-8.21-4.39,2.21,2.21,0,0,0,2.89-1.19h0l4.73-11.43.47,0a7,7,0,1,0-2.65-13.39A7,7,0,0,0,110,28.94a7,7,0,0,0,1.86,2.58l-3.9,9.42a49.52,49.52,0,0,0-5.53-1.68l1-4.83A2.22,2.22,0,0,0,99,33.56l-1,4.84a52.12,52.12,0,0,0-5.74-.56V27.64a7,7,0,1,0-4.44,0v10.2a54.15,54.15,0,0,0-5.74.56l-1-4.84a2.22,2.22,0,0,0-4.36.87l1,4.84a53.36,53.36,0,0,0-5.52,1.67l-3.91-9.42a7,7,0,0,0,1.86-2.58,7,7,0,1,0-6.42,4.3l.47,0,3.9,9.43a51.52,51.52,0,0,0-5.08,2.73l-2.76-4.12a2.21,2.21,0,1,0-3.68,2.46l2.75,4.13A52.11,52.11,0,0,0,55,51.51l-7.23-7.24a7,7,0,0,0-11.15-8,7,7,0,0,0,8,11.16l7.23,7.23a52.11,52.11,0,0,0-3.66,4.45L44,56.34A2.22,2.22,0,1,0,41.56,60l4.12,2.75A52.84,52.84,0,0,0,43,67.87L33.52,64A6.82,6.82,0,0,0,33,60.82a7,7,0,1,0-9.09,9.1,7,7,0,0,0,5.33,0,7,7,0,0,0,2.58-1.86L41.25,72a51.75,51.75,0,0,0-1.68,5.52l-4.84-1a2.22,2.22,0,1,0-.87,4.35l4.85,1a51.83,51.83,0,0,0-.56,5.75H28A7,7,0,1,0,28,92h10.2a51.83,51.83,0,0,0,.56,5.75l-4.85,1a2.22,2.22,0,0,0,.44,4.39,2.15,2.15,0,0,0,.43,0l4.84-1a51.75,51.75,0,0,0,1.68,5.52l-9.42,3.9a7,7,0,1,0-7.91,11,6.95,6.95,0,0,0,9.6-6.9L43,111.72a52.84,52.84,0,0,0,2.73,5.09l-4.12,2.75a2.22,2.22,0,0,0,1.23,4.06,2.19,2.19,0,0,0,1.23-.37l4.13-2.76A53.86,53.86,0,0,0,51.81,125l-7.23,7.22a7,7,0,1,0,3.14,3.15L55,128.08a52.11,52.11,0,0,0,4.45,3.66l-2.75,4.13a2.21,2.21,0,0,0,1.84,3.45,2.2,2.2,0,0,0,1.84-1l2.76-4.12a53.63,53.63,0,0,0,5.08,2.72l-3.9,9.43a7,7,0,0,0-3.14,13.37,7,7,0,0,0,9.09-9.09,7,7,0,0,0-1.86-2.58l3.91-9.42a53.36,53.36,0,0,0,5.52,1.67l-1,4.85a2.22,2.22,0,0,0,1.75,2.6,2.1,2.1,0,0,0,.43,0A2.22,2.22,0,0,0,81.18,146l1-4.84a54.15,54.15,0,0,0,5.74.56V152a7,7,0,1,0,4.44,0v-10.2a51.65,51.65,0,0,0,5.74-.56L99,146a2.22,2.22,0,0,0,2.18,1.79,2.1,2.1,0,0,0,.43,0,2.22,2.22,0,0,0,1.75-2.6l-1-4.85a53.36,53.36,0,0,0,5.52-1.67l3.91,9.42a7,7,0,0,0-1.86,2.58,7,7,0,1,0,6-4.28l-3.9-9.43a53.63,53.63,0,0,0,5.08-2.72l2.76,4.12a2.22,2.22,0,0,0,3.07.61,2.22,2.22,0,0,0,.61-3.08l-2.75-4.13a52.11,52.11,0,0,0,4.45-3.66l7.23,7.24a7,7,0,0,0,11.15,8,7,7,0,0,0-8-11.16L128.39,125a53.86,53.86,0,0,0,3.66-4.46l4.12,2.76a2.25,2.25,0,0,0,1.24.37,2.22,2.22,0,0,0,1.23-4.06l-4.12-2.75a52.84,52.84,0,0,0,2.73-5.09l9.43,3.91a6.82,6.82,0,0,0,.51,3.14,7,7,0,1,0,3.76-9.1,7,7,0,0,0-2.58,1.86l-9.42-3.9a51.75,51.75,0,0,0,1.68-5.52l4.84,1a2.15,2.15,0,0,0,.43,0,2.22,2.22,0,0,0,.43-4.39l-4.84-1a51.83,51.83,0,0,0,.56-5.75Zm-1-29.49a2.5,2.5,0,0,1,1.36-1.37,2.55,2.55,0,0,1,1.93,0A2.55,2.55,0,0,1,156,62.52a2.49,2.49,0,0,1,0,1.93,2.53,2.53,0,0,1-3.3,1.37,2.53,2.53,0,0,1-1.36-3.3ZM61.46,27.24A2.52,2.52,0,0,1,62.83,24a2.46,2.46,0,0,1,1-.2,2.55,2.55,0,0,1,2.33,1.56,2.53,2.53,0,0,1-1.36,3.3h0A2.53,2.53,0,0,1,61.46,27.24Zm52.62-1.93A2.52,2.52,0,0,1,115.44,24a2.45,2.45,0,0,1,1.94,0,2.52,2.52,0,0,1-1.94,4.66h0a2.53,2.53,0,0,1-1.36-3.3Zm-24-6.79a2.53,2.53,0,1,1-2.52,2.53A2.52,2.52,0,0,1,90.1,18.52ZM27.55,65.82a2.49,2.49,0,0,1-1.93,0,2.55,2.55,0,0,1-1.37-1.37A2.54,2.54,0,0,1,26.58,61a2.57,2.57,0,0,1,2.34,1.56,2.53,2.53,0,0,1-1.37,3.3Zm1.37,51.25a2.53,2.53,0,0,1-4.67,0,2.49,2.49,0,0,1,0-1.93,2.55,2.55,0,0,1,1.37-1.37,2.55,2.55,0,0,1,1.93,0,2.53,2.53,0,0,1,1.37,3.3ZM39.7,43a2.52,2.52,0,0,1,0-3.57A2.52,2.52,0,0,1,43.27,43a2.52,2.52,0,0,1-3.57,0ZM21.35,92.32a2.53,2.53,0,1,1,2.52-2.52A2.52,2.52,0,0,1,21.35,92.32Zm21.92,47.87A2.53,2.53,0,0,1,39,138.41a2.53,2.53,0,0,1,4.31-1.79A2.52,2.52,0,0,1,43.27,140.19Zm22.85,14.09a2.52,2.52,0,0,1-3.29,1.36A2.52,2.52,0,1,1,64.76,151h0a2.53,2.53,0,0,1,1.36,3.3Zm52.62-1.93a2.52,2.52,0,0,1-4.66,1.93,2.53,2.53,0,0,1,1.36-3.3h0a2.58,2.58,0,0,1,1-.19A2.52,2.52,0,0,1,118.74,152.35ZM90.1,161.07a2.53,2.53,0,1,1,2.52-2.52A2.52,2.52,0,0,1,90.1,161.07Zm62.55-47.3a2.53,2.53,0,0,1,3.3,1.37,2.49,2.49,0,0,1,0,1.93,2.53,2.53,0,0,1-3.3,1.37,2.53,2.53,0,0,1,0-4.67Zm6.2-26.5a2.53,2.53,0,1,1-2.52,2.53A2.52,2.52,0,0,1,158.85,87.27ZM136.93,39.4a2.53,2.53,0,0,1,4.31,1.78,2.52,2.52,0,1,1-4.31-1.78Zm3.57,97.22a2.52,2.52,0,0,1,0,3.57,2.52,2.52,0,0,1-3.57,0,2.52,2.52,0,0,1,3.57-3.57Z" transform="translate(-14.39 -14.09)" fill="#fff"/><path d="M132.62,89.8a7,7,0,1,0-7,7A7,7,0,0,0,132.62,89.8Zm-9.48,0a2.52,2.52,0,1,1,2.52,2.52A2.52,2.52,0,0,1,123.14,89.8Z" transform="translate(-14.39 -14.09)" fill="#fff"/><path d="M47.58,89.8a7,7,0,1,0,7-7A7,7,0,0,0,47.58,89.8Zm9.48,0a2.52,2.52,0,1,1-2.52-2.53A2.52,2.52,0,0,1,57.06,89.8Z" transform="translate(-14.39 -14.09)" fill="#fff"/><path d="M60,59.73a7,7,0,1,0,4.93-2A6.91,6.91,0,0,0,60,59.73Zm7.45,4.92a2.52,2.52,0,0,1-4.31,1.78,2.52,2.52,0,1,1,4.31-1.78Z" transform="translate(-14.39 -14.09)" fill="#fff"/><path d="M115.25,121.9a6.95,6.95,0,1,0-4.93-2A6.91,6.91,0,0,0,115.25,121.9Zm-1.79-8.74a2.51,2.51,0,1,1-.74,1.78A2.5,2.5,0,0,1,113.46,113.16Z" transform="translate(-14.39 -14.09)" fill="#fff"/><path d="M117,66.44a2.53,2.53,0,0,1-1.78.73,2.52,2.52,0,0,1-1.79-4.3,2.22,2.22,0,0,0-3.14-3.14,7,7,0,0,0,9.85,9.84A2.22,2.22,0,1,0,117,66.44Z" transform="translate(-14.39 -14.09)" fill="#fff"/><path d="M65,121.9a6.91,6.91,0,0,0,4.92-2,2.22,2.22,0,1,0-3.14-3.14,2.52,2.52,0,1,1-3.57-3.56A2.22,2.22,0,0,0,60,110,7,7,0,0,0,65,121.9Z" transform="translate(-14.39 -14.09)" fill="#fff"/><path d="M90.1,68.61a7,7,0,1,0,7,7A7,7,0,0,0,90.1,68.61Zm0,9.48a2.52,2.52,0,1,1,2.52-2.52A2.52,2.52,0,0,1,90.1,78.09Z" transform="translate(-14.39 -14.09)" fill="#fff"/><path d="M90.1,97.06a7,7,0,1,0,7,7A7,7,0,0,0,90.1,97.06Zm0,9.48A2.52,2.52,0,1,1,92.62,104,2.52,2.52,0,0,1,90.1,106.54Z" transform="translate(-14.39 -14.09)" fill="#fff"/><path d="M111.28,89.8a7,7,0,1,0-7,7A7,7,0,0,0,111.28,89.8Zm-7,2.52a2.53,2.53,0,1,1,2.53-2.52A2.52,2.52,0,0,1,104.32,92.32Z" transform="translate(-14.39 -14.09)" fill="#fff"/><path d="M82.84,89.8a7,7,0,1,0-7,7A7,7,0,0,0,82.84,89.8Zm-7,2.52A2.53,2.53,0,1,1,78.4,89.8,2.52,2.52,0,0,1,75.88,92.32Z" transform="translate(-14.39 -14.09)" fill="#fff"/><path d="M75.88,77.79h0a2.21,2.21,0,0,0,2.21-2.22,2.23,2.23,0,1,0-2.23,2.22Z" transform="translate(-14.39 -14.09)" fill="#fff"/><path d="M75.9,106.24A2.22,2.22,0,1,0,73.66,104a2.22,2.22,0,0,0,2.24,2.22Z" transform="translate(-14.39 -14.09)" fill="#fff"/><path d="M102.08,75.57a2.22,2.22,0,0,0,2.22,2.22h0a2.21,2.21,0,0,0,2.21-2.22,2.23,2.23,0,0,0-4.45,0Z" transform="translate(-14.39 -14.09)" fill="#fff"/><path d="M76.49,59.17a2.3,2.3,0,0,0,.85-.17h0a2.22,2.22,0,1,0-2.92-1.19A2.23,2.23,0,0,0,76.49,59.17Z" transform="translate(-14.39 -14.09)" fill="#fff"/><path d="M122.1,74.14a2.22,2.22,0,0,0,.86,4.27,2.15,2.15,0,0,0,.85-.17h0a2.22,2.22,0,0,0-1.73-4.09Z" transform="translate(-14.39 -14.09)" fill="#fff"/><path d="M57.25,105.63a2.34,2.34,0,0,0,.85-.17h0a2.21,2.21,0,1,0-.87.18Z" transform="translate(-14.39 -14.09)" fill="#fff"/><path d="M102.86,120.6a2.22,2.22,0,0,0,.85,4.27,2.15,2.15,0,0,0,.85-.17h0a2.21,2.21,0,0,0,1.19-2.89A2.24,2.24,0,0,0,102.86,120.6Z" transform="translate(-14.39 -14.09)" fill="#fff"/><path d="M104.3,101.8a2.22,2.22,0,0,0,0,4.44h0a2.22,2.22,0,0,0,0-4.44Z" transform="translate(-14.39 -14.09)" fill="#fff"/><path d="M55.21,75.35a2.22,2.22,0,0,0,1.19,2.9,2.34,2.34,0,0,0,.85.17,2.22,2.22,0,0,0,2-1.37v0a2.22,2.22,0,1,0-4.1-1.68Z" transform="translate(-14.39 -14.09)" fill="#fff"/><path d="M104.56,54.89a2.22,2.22,0,1,0-.84,4.28,2.22,2.22,0,0,0,2-1.38v0A2.21,2.21,0,0,0,104.56,54.89Z" transform="translate(-14.39 -14.09)" fill="#fff"/><path d="M75.65,124.71a2.3,2.3,0,0,0,.85.17,2.23,2.23,0,0,0,2-1.37v0a2.21,2.21,0,0,0-1.2-2.89,2.23,2.23,0,0,0-1.71,4.11Z" transform="translate(-14.39 -14.09)" fill="#fff"/><path d="M125,104.27v0a2.2,2.2,0,0,0-1.2-2.88,2.22,2.22,0,1,0-1.71,4.1,2.15,2.15,0,0,0,.85.17A2.22,2.22,0,0,0,125,104.27Z" transform="translate(-14.39 -14.09)" fill="#fff"/></svg>